<?xml version='1.0' encoding='UTF-8'?>
<svg width="43.2mm" height="43.2mm" version="1.1" viewBox="0 0 43.2 43.2" xmlns="http://www.w3.org/2000/svg"><path d="M1.6,1.6H3.2V3.2H1.6zM3.2,1.6H4.8V3.2H3.2zM4.8,1.6H6.4V3.2H4.8zM6.4,1.6H8V3.2H6.4zM8,1.6H9.6V3.2H8zM9.6,1.6H11.2V3.2H9.6zM11.2,1.6H12.8V3.2H11.2zM14.4,1.6H16V3.2H14.4zM16,1.6H17.6V3.2H16zM20.8,1.6H22.4V3.2H20.8zM24,1.6H25.6V3.2H24zM30.4,1.6H32V3.2H30.4zM32,1.6H33.6V3.2H32zM33.6,1.6H35.2V3.2H33.6zM35.2,1.6H36.8V3.2H35.2zM36.8,1.6H38.4V3.2H36.8zM38.4,1.6H40V3.2H38.4zM40,1.6H41.6V3.2H40zM1.6,3.2H3.2V4.8H1.6zM11.2,3.2H12.8V4.8H11.2zM14.4,3.2H16V4.8H14.4zM20.8,3.2H22.4V4.8H20.8zM22.4,3.2H24V4.8H22.4zM24,3.2H25.6V4.8H24zM30.4,3.2H32V4.8H30.4zM40,3.2H41.6V4.8H40zM1.6,4.8H3.2V6.4H1.6zM4.8,4.8H6.4V6.4H4.8zM6.4,4.8H8V6.4H6.4zM8,4.8H9.6V6.4H8zM11.2,4.8H12.8V6.4H11.2zM14.4,4.8H16V6.4H14.4zM16,4.8H17.6V6.4H16zM20.8,4.8H22.4V6.4H20.8zM22.4,4.8H24V6.4H22.4zM24,4.8H25.6V6.4H24zM30.4,4.8H32V6.4H30.4zM33.6,4.8H35.2V6.4H33.6zM35.2,4.8H36.8V6.4H35.2zM36.8,4.8H38.4V6.4H36.8zM40,4.8H41.6V6.4H40zM1.6,6.4H3.2V8H1.6zM4.8,6.4H6.4V8H4.8zM6.4,6.4H8V8H6.4zM8,6.4H9.6V8H8zM11.2,6.4H12.8V8H11.2zM17.6,6.4H19.2V8H17.6zM20.8,6.4H22.4V8H20.8zM22.4,6.4H24V8H22.4zM25.6,6.4H27.2V8H25.6zM27.2,6.4H28.8V8H27.2zM30.4,6.4H32V8H30.4zM33.6,6.4H35.2V8H33.6zM35.2,6.4H36.8V8H35.2zM36.8,6.4H38.4V8H36.8zM40,6.4H41.6V8H40zM1.6,8H3.2V9.6H1.6zM4.8,8H6.4V9.6H4.8zM6.4,8H8V9.6H6.4zM8,8H9.6V9.6H8zM11.2,8H12.8V9.6H11.2zM14.4,8H16V9.6H14.4zM16,8H17.6V9.6H16zM22.4,8H24V9.6H22.4zM24,8H25.6V9.6H24zM30.4,8H32V9.6H30.4zM33.6,8H35.2V9.6H33.6zM35.2,8H36.8V9.6H35.2zM36.8,8H38.4V9.6H36.8zM40,8H41.6V9.6H40zM1.6,9.6H3.2V11.2H1.6zM11.2,9.6H12.8V11.2H11.2zM19.2,9.6H20.8V11.2H19.2zM20.8,9.6H22.4V11.2H20.8zM22.4,9.6H24V11.2H22.4zM24,9.6H25.6V11.2H24zM30.4,9.6H32V11.2H30.4zM40,9.6H41.6V11.2H40zM1.6,11.2H3.2V12.8H1.6zM3.2,11.2H4.8V12.8H3.2zM4.8,11.2H6.4V12.8H4.8zM6.4,11.2H8V12.8H6.4zM8,11.2H9.6V12.8H8zM9.6,11.2H11.2V12.8H9.6zM11.2,11.2H12.8V12.8H11.2zM14.4,11.2H16V12.8H14.4zM17.6,11.2H19.2V12.8H17.6zM20.8,11.2H22.4V12.8H20.8zM24,11.2H25.6V12.8H24zM27.2,11.2H28.8V12.8H27.2zM30.4,11.2H32V12.8H30.4zM32,11.2H33.6V12.8H32zM33.6,11.2H35.2V12.8H33.6zM35.2,11.2H36.8V12.8H35.2zM36.8,11.2H38.4V12.8H36.8zM38.4,11.2H40V12.8H38.4zM40,11.2H41.6V12.8H40zM20.8,12.8H22.4V14.4H20.8zM22.4,12.8H24V14.4H22.4zM24,12.8H25.6V14.4H24zM27.2,12.8H28.8V14.4H27.2zM1.6,14.4H3.2V16H1.6zM6.4,14.4H8V16H6.4zM8,14.4H9.6V16H8zM9.6,14.4H11.2V16H9.6zM11.2,14.4H12.8V16H11.2zM12.8,14.4H14.4V16H12.8zM14.4,14.4H16V16H14.4zM16,14.4H17.6V16H16zM17.6,14.4H19.2V16H17.6zM19.2,14.4H20.8V16H19.2zM24,14.4H25.6V16H24zM25.6,14.4H27.2V16H25.6zM27.2,14.4H28.8V16H27.2zM28.8,14.4H30.4V16H28.8zM33.6,14.4H35.2V16H33.6zM36.8,14.4H38.4V16H36.8zM38.4,14.4H40V16H38.4zM40,14.4H41.6V16H40zM1.6,16H3.2V17.6H1.6zM3.2,16H4.8V17.6H3.2zM8,16H9.6V17.6H8zM12.8,16H14.4V17.6H12.8zM17.6,16H19.2V17.6H17.6zM19.2,16H20.8V17.6H19.2zM24,16H25.6V17.6H24zM25.6,16H27.2V17.6H25.6zM32,16H33.6V17.6H32zM33.6,16H35.2V17.6H33.6zM35.2,16H36.8V17.6H35.2zM36.8,16H38.4V17.6H36.8zM38.4,16H40V17.6H38.4zM1.6,17.6H3.2V19.2H1.6zM3.2,17.6H4.8V19.2H3.2zM4.8,17.6H6.4V19.2H4.8zM6.4,17.6H8V19.2H6.4zM8,17.6H9.6V19.2H8zM11.2,17.6H12.8V19.2H11.2zM12.8,17.6H14.4V19.2H12.8zM14.4,17.6H16V19.2H14.4zM19.2,17.6H20.8V19.2H19.2zM22.4,17.6H24V19.2H22.4zM25.6,17.6H27.2V19.2H25.6zM27.2,17.6H28.8V19.2H27.2zM28.8,17.6H30.4V19.2H28.8zM30.4,17.6H32V19.2H30.4zM32,17.6H33.6V19.2H32zM35.2,17.6H36.8V19.2H35.2zM40,17.6H41.6V19.2H40zM3.2,19.2H4.8V20.8H3.2zM6.4,19.2H8V20.8H6.4zM12.8,19.2H14.4V20.8H12.8zM14.4,19.2H16V20.8H14.4zM16,19.2H17.6V20.8H16zM20.8,19.2H22.4V20.8H20.8zM25.6,19.2H27.2V20.8H25.6zM27.2,19.2H28.8V20.8H27.2zM30.4,19.2H32V20.8H30.4zM35.2,19.2H36.8V20.8H35.2zM36.8,19.2H38.4V20.8H36.8zM38.4,19.2H40V20.8H38.4zM40,19.2H41.6V20.8H40zM1.6,20.8H3.2V22.4H1.6zM3.2,20.8H4.8V22.4H3.2zM4.8,20.8H6.4V22.4H4.8zM6.4,20.8H8V22.4H6.4zM8,20.8H9.6V22.4H8zM9.6,20.8H11.2V22.4H9.6zM11.2,20.8H12.8V22.4H11.2zM12.8,20.8H14.4V22.4H12.8zM17.6,20.8H19.2V22.4H17.6zM25.6,20.8H27.2V22.4H25.6zM27.2,20.8H28.8V22.4H27.2zM30.4,20.8H32V22.4H30.4zM32,20.8H33.6V22.4H32zM40,20.8H41.6V22.4H40zM1.6,22.4H3.2V24H1.6zM3.2,22.4H4.8V24H3.2zM4.8,22.4H6.4V24H4.8zM14.4,22.4H16V24H14.4zM17.6,22.4H19.2V24H17.6zM20.8,22.4H22.4V24H20.8zM24,22.4H25.6V24H24zM25.6,22.4H27.2V24H25.6zM27.2,22.4H28.8V24H27.2zM28.8,22.4H30.4V24H28.8zM33.6,22.4H35.2V24H33.6zM38.4,22.4H40V24H38.4zM1.6,24H3.2V25.6H1.6zM3.2,24H4.8V25.6H3.2zM4.8,24H6.4V25.6H4.8zM6.4,24H8V25.6H6.4zM11.2,24H12.8V25.6H11.2zM17.6,24H19.2V25.6H17.6zM24,24H25.6V25.6H24zM25.6,24H27.2V25.6H25.6zM30.4,24H32V25.6H30.4zM33.6,24H35.2V25.6H33.6zM35.2,24H36.8V25.6H35.2zM36.8,24H38.4V25.6H36.8zM38.4,24H40V25.6H38.4zM40,24H41.6V25.6H40zM1.6,25.6H3.2V27.2H1.6zM6.4,25.6H8V27.2H6.4zM8,25.6H9.6V27.2H8zM12.8,25.6H14.4V27.2H12.8zM14.4,25.6H16V27.2H14.4zM20.8,25.6H22.4V27.2H20.8zM27.2,25.6H28.8V27.2H27.2zM32,25.6H33.6V27.2H32zM35.2,25.6H36.8V27.2H35.2zM36.8,25.6H38.4V27.2H36.8zM40,25.6H41.6V27.2H40zM1.6,27.2H3.2V28.8H1.6zM8,27.2H9.6V28.8H8zM9.6,27.2H11.2V28.8H9.6zM11.2,27.2H12.8V28.8H11.2zM14.4,27.2H16V28.8H14.4zM17.6,27.2H19.2V28.8H17.6zM19.2,27.2H20.8V28.8H19.2zM20.8,27.2H22.4V28.8H20.8zM22.4,27.2H24V28.8H22.4zM24,27.2H25.6V28.8H24zM25.6,27.2H27.2V28.8H25.6zM27.2,27.2H28.8V28.8H27.2zM28.8,27.2H30.4V28.8H28.8zM30.4,27.2H32V28.8H30.4zM32,27.2H33.6V28.8H32zM33.6,27.2H35.2V28.8H33.6zM36.8,27.2H38.4V28.8H36.8zM38.4,27.2H40V28.8H38.4zM14.4,28.8H16V30.4H14.4zM16,28.8H17.6V30.4H16zM17.6,28.8H19.2V30.4H17.6zM19.2,28.8H20.8V30.4H19.2zM22.4,28.8H24V30.4H22.4zM27.2,28.8H28.8V30.4H27.2zM33.6,28.8H35.2V30.4H33.6zM36.8,28.8H38.4V30.4H36.8zM38.4,28.8H40V30.4H38.4zM1.6,30.4H3.2V32H1.6zM3.2,30.4H4.8V32H3.2zM4.8,30.4H6.4V32H4.8zM6.4,30.4H8V32H6.4zM8,30.4H9.6V32H8zM9.6,30.4H11.2V32H9.6zM11.2,30.4H12.8V32H11.2zM14.4,30.4H16V32H14.4zM16,30.4H17.6V32H16zM20.8,30.4H22.4V32H20.8zM27.2,30.4H28.8V32H27.2zM30.4,30.4H32V32H30.4zM33.6,30.4H35.2V32H33.6zM40,30.4H41.6V32H40zM1.6,32H3.2V33.6H1.6zM11.2,32H12.8V33.6H11.2zM14.4,32H16V33.6H14.4zM19.2,32H20.8V33.6H19.2zM22.4,32H24V33.6H22.4zM25.6,32H27.2V33.6H25.6zM27.2,32H28.8V33.6H27.2zM33.6,32H35.2V33.6H33.6zM1.6,33.6H3.2V35.2H1.6zM4.8,33.6H6.4V35.2H4.8zM6.4,33.6H8V35.2H6.4zM8,33.6H9.6V35.2H8zM11.2,33.6H12.8V35.2H11.2zM14.4,33.6H16V35.2H14.4zM16,33.6H17.6V35.2H16zM17.6,33.6H19.2V35.2H17.6zM19.2,33.6H20.8V35.2H19.2zM22.4,33.6H24V35.2H22.4zM25.6,33.6H27.2V35.2H25.6zM27.2,33.6H28.8V35.2H27.2zM28.8,33.6H30.4V35.2H28.8zM30.4,33.6H32V35.2H30.4zM32,33.6H33.6V35.2H32zM33.6,33.6H35.2V35.2H33.6zM38.4,33.6H40V35.2H38.4zM40,33.6H41.6V35.2H40zM1.6,35.2H3.2V36.8H1.6zM4.8,35.2H6.4V36.8H4.8zM6.4,35.2H8V36.8H6.4zM8,35.2H9.6V36.8H8zM11.2,35.2H12.8V36.8H11.2zM14.4,35.2H16V36.8H14.4zM16,35.2H17.6V36.8H16zM17.6,35.2H19.2V36.8H17.6zM20.8,35.2H22.4V36.8H20.8zM22.4,35.2H24V36.8H22.4zM24,35.2H25.6V36.8H24zM27.2,35.2H28.8V36.8H27.2zM28.8,35.2H30.4V36.8H28.8zM30.4,35.2H32V36.8H30.4zM38.4,35.2H40V36.8H38.4zM40,35.2H41.6V36.8H40zM1.6,36.8H3.2V38.4H1.6zM4.8,36.8H6.4V38.4H4.8zM6.4,36.8H8V38.4H6.4zM8,36.8H9.6V38.4H8zM11.2,36.8H12.8V38.4H11.2zM17.6,36.8H19.2V38.4H17.6zM19.2,36.8H20.8V38.4H19.2zM22.4,36.8H24V38.4H22.4zM25.6,36.8H27.2V38.4H25.6zM28.8,36.8H30.4V38.4H28.8zM33.6,36.8H35.2V38.4H33.6zM35.2,36.8H36.8V38.4H35.2zM36.8,36.8H38.4V38.4H36.8zM38.4,36.8H40V38.4H38.4zM40,36.8H41.6V38.4H40zM1.6,38.4H3.2V40H1.6zM11.2,38.4H12.8V40H11.2zM17.6,38.4H19.2V40H17.6zM19.2,38.4H20.8V40H19.2zM20.8,38.4H22.4V40H20.8zM22.4,38.4H24V40H22.4zM25.6,38.4H27.2V40H25.6zM28.8,38.4H30.4V40H28.8zM30.4,38.4H32V40H30.4zM32,38.4H33.6V40H32zM33.6,38.4H35.2V40H33.6zM36.8,38.4H38.4V40H36.8zM38.4,38.4H40V40H38.4zM40,38.4H41.6V40H40zM1.6,40H3.2V41.6H1.6zM3.2,40H4.8V41.6H3.2zM4.8,40H6.4V41.6H4.8zM6.4,40H8V41.6H6.4zM8,40H9.6V41.6H8zM9.6,40H11.2V41.6H9.6zM11.2,40H12.8V41.6H11.2zM14.4,40H16V41.6H14.4zM19.2,40H20.8V41.6H19.2zM20.8,40H22.4V41.6H20.8zM22.4,40H24V41.6H22.4zM27.2,40H28.8V41.6H27.2zM30.4,40H32V41.6H30.4zM35.2,40H36.8V41.6H35.2zM40,40H41.6V41.6H40z" id="qr-path" fill="#000000" fill-opacity="1" fill-rule="nonzero" stroke="none" /></svg>